<?xml version="1.0" encoding="UTF-8" standalone="no"?>
<!-- Created with Inkscape (http://www.inkscape.org/) -->

<svg
   width="800"
   height="600"
   viewBox="0 0 211.66666 158.75"
   version="1.1"
   id="svg5"
   inkscape:version="1.2-dev (4dc9593, 2021-08-26)"
   sodipodi:docname="drawing-1.svg"
   xmlns:inkscape="http://www.inkscape.org/namespaces/inkscape"
   xmlns:sodipodi="http://sodipodi.sourceforge.net/DTD/sodipodi-0.dtd"
   xmlns:xlink="http://www.w3.org/1999/xlink"
   xmlns="http://www.w3.org/2000/svg"
   xmlns:svg="http://www.w3.org/2000/svg">
  <sodipodi:namedview
     id="namedview7"
     pagecolor="#ffffff"
     bordercolor="#666666"
     borderopacity="1.0"
     inkscape:pageshadow="2"
     inkscape:pageopacity="0.0"
     inkscape:pagecheckerboard="0"
     inkscape:document-units="px"
     showgrid="false"
     units="px"
     inkscape:zoom="6.2217172"
     inkscape:cx="246.395"
     inkscape:cy="240.68918"
     inkscape:window-width="2560"
     inkscape:window-height="1387"
     inkscape:window-x="1912"
     inkscape:window-y="-8"
     inkscape:window-maximized="1"
     inkscape:current-layer="layer1"
     width="400px" />
  <defs
     id="defs2" />
  <g
     inkscape:label="Layer 1"
     inkscape:groupmode="layer"
     id="layer1">
    <path
       style="fill:none;stroke:#000000;stroke-width:0.511521px;stroke-linecap:butt;stroke-linejoin:miter;stroke-opacity:1"
       d="m 163.17421,93.275901 c 11.25398,-3.203903 17.09232,-9.096462 17.48197,-18.451455 0.41767,-10.027809 -2.17894,-11.325305 -3.98184,-19.560471 -1.44658,-6.607591 -6.14273,-12.65629 -2.14686,-23.218688 1.2515,-3.308123 7.82638,-6.866578 12.03016,-5.265806 7.33601,2.793503 -2.73124,8.290081 -1.95534,14.382855 0.73572,5.77719 10.27843,7.359045 7.65539,21.147347 -1.03572,5.444401 -2.32969,9.569262 -5.33864,16.022949 -4.70686,10.095404 -6.50559,10.105069 -17.2402,14.862392"
       id="path901"
       sodipodi:nodetypes="csssssssc" />
    <path
       style="fill:none;stroke:#000000;stroke-width:0.511521px;stroke-linecap:butt;stroke-linejoin:miter;stroke-opacity:1"
       d="m 112.03158,87.248641 c 7.81677,-1.463015 15.74623,-0.628457 23.63484,-0.914003 10.62627,-0.34517 21.64559,2.002582 30.40339,8.161956 4.93058,4.142595 5.83585,7.283276 6.90364,11.819756 1.92329,8.17098 -0.63847,7.80175 -0.73442,11.72316 -0.18979,7.75724 -2.12238,7.73453 -3.63932,11.65536 -1.9796,5.11667 -6.37756,6.46313 -11.1334,5.98558 -7.92661,-0.79594 -14.84903,1.64924 -13.21372,-5.10969 1.04077,-4.30165 1.34044,-5.04877 0.82593,-9.82894 -0.80955,-7.52132 0.61017,-10.44276 -5.1528,-10.24865 -9.81531,0.33059 -9.21095,-2.10815 -8.5206,4.71848 0.53675,5.30775 -0.23591,10.67052 -0.30749,16.00397 -2.51693,2.34909 -7.50179,2.86181 -10.80315,2.22821 -1.02961,-7.31946 1.50904,-14.64543 0.83161,-21.96736 -3.68894,-1.1492 -7.70758,-0.68472 -12.01944,-0.88656 -3.02767,-0.14172 -6.63721,-0.52772 -9.283458,-0.61042 -0.151328,5.7968 1.043158,7.95147 0.754388,11.58161 -0.593593,7.46195 1.15624,7.41789 -3.808844,7.2681 -4.368748,-0.13179 -3.322068,-0.0189 -3.532992,-10.78709 -0.191169,-9.75968 3.332302,-8.60215 -2.903123,-8.25883 -6.357389,0.35005 -12.669216,2.07082 -19.057426,1.24992 -2.980354,3.18862 -0.770154,9.19044 -0.846139,11.3259 -0.20597,5.78851 0.91831,6.40707 -1.424368,6.7088 -2.486333,0.32023 -3.243,0.57587 -3.667762,-2.11814 -0.840878,-5.33321 -0.463444,-8.68208 -0.452959,-13.91816"
       id="path903"
       sodipodi:nodetypes="cccsssssssssssscsssscssss" />
    <path
       style="fill:none;stroke:#000000;stroke-width:0.511521px;stroke-linecap:butt;stroke-linejoin:miter;stroke-opacity:1"
       d="M 64.441753,100.1897 C 64.191538,97.57936 63.761578,86.384507 64.3801,85.256541"
       id="path905"
       sodipodi:nodetypes="cc" />
    <path
       style="fill:none;stroke:#000000;stroke-width:0.511521px;stroke-linecap:butt;stroke-linejoin:miter;stroke-opacity:1"
       d="m 79.027544,85.889692 c -0.285495,5.63223 -1.367615,9.773644 -1.431718,12.350687 -0.05622,2.259961 -1.098831,4.509931 -2.490409,7.197951 -1.956768,3.77976 -5.6421,6.24879 -9.776389,7.39708 -7.26128,2.01681 -14.995024,3.38061 -22.351,3.07111 -5.276173,-0.22199 -9.583373,-3.94214 -12.512777,-8.09089 C 26.358017,101.9792 24.059268,95.140402 21.408703,88.576763 20.37842,85.93638 20.311832,82.099122 19.658054,80.325513 18.483198,77.138298 17.60229,73.245428 17.85633,67.479302 c 0.182951,-4.15258 2.88655,-6.127248 6.958542,-6.150268 4.525025,-0.02558 6.737682,3.797266 6.524928,7.508585 -0.218143,3.805313 -1.216706,7.574114 -1.10765,11.420916 -0.0794,7.219 2.300525,14.647519 7.264945,19.978295 5.397062,5.80384 14.483702,6.33494 21.494136,3.47832 5.825679,-2.47624 10.321766,-7.985645 11.702238,-14.14881 0.268398,-1.237732 0.143446,-3.375241 0.143446,-3.375241"
       id="path907"
       sodipodi:nodetypes="cssssscssssssscc" />
    <path
       style="fill:none;stroke:#000000;stroke-width:0.511521px;stroke-linecap:butt;stroke-linejoin:miter;stroke-opacity:1"
       d="m 95.492133,68.616326 c -0.779605,8.488751 -2.772369,15.382079 -0.291413,22.636689 4.66047,14.704305 18.89609,11.746465 20.02829,-0.545336 1.06986,-11.614987 -7.27611,-18.218356 -6.37836,-27.322073 0.66492,-6.742738 8.34769,-17.67136 10.25744,-23.824586 1.75351,-5.649826 -4.58062,-14.791227 -13.50926,-15.328566 -6.434744,-0.387253 -9.360206,3.802812 -10.663692,7.46296 -1.303487,3.660147 -0.995629,7.291762 -0.995629,7.291762 0,0 -4.846551,-5.855942 -15.744434,-5.564202 -9.612539,0.257331 -14.563727,6.718029 -14.563727,6.718029 0,0 0.154798,-2.248908 -0.692799,-4.810901 -0.847598,-2.561994 -2.69759,-5.437072 -6.707171,-6.689411 -5.199,-1.623839 -10.998244,-1.73724 -15.142844,3.280832 -3.243482,3.927044 -7.221729,8.899754 -5.890783,14.098452 2.400976,9.378257 8.246783,12.897751 8.872787,23.515478 0.397413,6.740573 -3.397074,16.708757 1.548337,21.334114 2.592529,2.424747 3.127668,4.091568 6.686728,4.123869 4.482441,0.04068 5.408088,-6.297115 6.604449,-9.964202 1.271736,-3.771434 0.338096,-7.813528 -0.711572,-11.515021 -0.346004,3.281592 3.570738,9.587536 4.709641,10.38476 2.171769,1.520224 3.122076,4.091708 8.641255,1.967955 2.561753,-0.98575 11.30435,2.437346 13.858734,2.374893 4.281833,-0.104688 6.410183,-5.59004 6.897594,-10.446161 0.657786,-6.553582 3.186479,-9.179334 3.186479,-9.179334 z"
       id="path918"
       sodipodi:nodetypes="ccssssscscssssssssssssscc" />
    <path
       style="fill:none;stroke:#000000;stroke-width:0.511521px;stroke-linecap:butt;stroke-linejoin:miter;stroke-opacity:1"
       d="m 108.75234,37.043047 c -1.74769,1.611994 -2.5694,3.1373 -3.80515,5.451843 -1.06835,2.001025 -1.16755,5.431302 -1.16296,7.936801 0.007,3.921942 0.72103,7.802392 1.01026,11.706455 0.22047,5.291302 -2.83772,9.020822 -4.816742,14.637506 -1.805337,5.123741 -2.213701,14.952855 3.340762,14.919421 4.99128,-0.03004 4.10729,-3.118697 4.09183,-6.788112 -0.0299,-7.102844 -1.32339,-1.202743 -0.0808,-17.256082 0.12766,-1.649363 0.7457,-3.938478 0.90244,-6.216325 0.21909,-3.184011 2.05148,-7.374598 2.66033,-10.450244 0.63443,-3.204817 0.6212,-7.190031 0.14286,-10.258902 -0.15494,-0.994077 -1.05023,-4.819213 -2.28278,-3.682361 z"
       id="path3817"
       sodipodi:nodetypes="sssssssssssss" />
    <path
       style="fill:none;stroke:#000000;stroke-width:0.511521px;stroke-linecap:butt;stroke-linejoin:miter;stroke-opacity:1"
       d="m 84.868738,66.496755 c -1.849851,1.212681 -3.565373,0.896516 -4.562962,-0.246646 -1.085466,-1.243862 -1.438771,-2.219819 -1.438771,-2.219819 0,0 -0.99818,1.979707 -3.370837,3.185848 -2.418977,1.229688 -3.217443,-2.265877 -3.217443,-2.265877"
       id="path3819"
       sodipodi:nodetypes="cscsc" />
    <path
       style="fill:none;stroke:#000000;stroke-width:0.511521px;stroke-linecap:butt;stroke-linejoin:miter;stroke-opacity:1"
       d="m 82.895569,66.825619 c -3.074261,9.286756 -7.004868,8.840628 -7.337736,-0.123326"
       id="path3821"
       sodipodi:nodetypes="cc" />
    <path
       style="fill:none;stroke:#000000;stroke-width:0.511521px;stroke-linecap:butt;stroke-linejoin:miter;stroke-opacity:1"
       d="m 56.987096,36.715647 c 0,0 -0.997226,-0.701843 -2.389197,-0.8027 -1.391971,-0.100857 -3.178686,0.399273 -4.757664,2.803218 -3.841478,5.848532 -2.851661,8.398743 0.478546,13.451579 2.771338,4.204878 2.795303,9.651152 1.059977,14.439513 -1.385651,3.823488 -3.890509,10.67377 -1.253835,13.953081 2.690908,3.346762 5.067233,1.718617 4.489705,-2.991292 -0.258975,-2.112013 0.222027,-3.534213 0.185607,-7.422011 -0.02326,-2.48331 -0.30073,-4.018458 -0.542789,-6.036993 -0.334297,-2.787716 -0.538576,-5.571107 0.122135,-8.347951 0.852274,-3.581944 1.75079,-7.186714 0.782146,-10.705999 -0.506276,-1.839407 -0.723097,-3.257938 -0.209109,-4.510053 0.53079,-1.293044 0.29515,-2.239989 0.29515,-2.239989"
       id="path5085"
       sodipodi:nodetypes="csssssssssssc" />
    <path
       style="fill:none;stroke:#000000;stroke-width:0.511521px;stroke-linecap:butt;stroke-linejoin:miter;stroke-opacity:1"
       d="m 59.217498,55.335996 c 1.287208,-3.000917 4.703497,-5.989435 7.742921,-6.464229 4.581085,-0.715618 7.893739,4.527683 7.893739,4.527683 -1.312704,2.36027 -2.617866,6.764662 -8.032846,6.880802 -2.140517,0.04592 -6.228575,-0.864584 -6.370132,-4.453661"
       id="path133693"
       sodipodi:nodetypes="cscsc" />
    <path
       style="fill:none;stroke:#000000;stroke-width:0.511521px;stroke-linecap:butt;stroke-linejoin:miter;stroke-opacity:1"
       d="m 82.702397,53.210511 c 0.668327,-1.313524 1.413636,-2.600327 2.779746,-3.418757 1.929548,-1.155983 3.995292,-2.294409 6.302143,-2.414152 2.145798,-0.111378 4.689934,-0.04603 6.224929,1.552255 2.553225,2.658502 1.733927,5.688143 0.891263,8.437693 -0.216867,0.707624 -0.09365,1.711165 -0.636552,2.181284 -1.547431,0.599118 -3.306693,0.738036 -4.887408,0.333659 -3.812765,-0.975377 -5.738904,-1.685638 -8.162021,-3.251598 -2.008864,-1.298247 -2.524259,-2.558133 -2.5121,-3.420384 z"
       id="path133352"
       sodipodi:nodetypes="csssscssc" />
    <path
       style="fill:none;stroke:#000000;stroke-width:0.511521px;stroke-linecap:butt;stroke-linejoin:miter;stroke-opacity:1"
       d="m 64.011949,60.537686 c -0.232537,-0.7579 -1.017366,-7.210906 1.947528,-10.466472 2.964892,-3.255569 3.836917,0.915656 3.691584,3.088443 -0.145346,2.172784 -2.18007,7.695627 -1.918462,2.347192 0.261608,-5.348434 -1.922737,-7.746185 -1.191768,-3.429973 0.405204,2.392638 -0.585631,1.410101 -0.02906,1.889391 0.556562,0.479293 0.706177,1.278976 0.556562,2.209136 -0.149619,0.930162 -0.39344,1.003162 -0.411221,1.831259 -0.08721,4.061121 0.02906,0 0.842956,-0.232543 0.813893,-0.232538 1.113799,-0.775027 0.377881,0.39027 -0.973766,1.541919 -1.569649,2.035932 -2.383542,2.204617 -0.813892,0.168682 -1.482446,0.168682 -1.482446,0.168682 z"
       id="path136801"
       sodipodi:nodetypes="ssssssssssscs" />
    <path
       style="fill:none;stroke:#000000;stroke-width:0.511521px;stroke-linecap:butt;stroke-linejoin:miter;stroke-opacity:1"
       d="m 88.897301,56.856986 c -0.246652,-0.184979 -0.534404,-6.371702 1.70597,-7.892689 2.240372,-1.520988 4.151883,-2.240374 4.953483,0.739939 0.801601,2.980312 0.287756,5.426226 -1.767635,7.049981 -2.055385,1.623758 -3.88468,2.034832 -3.987449,0.945479 -0.102774,-1.089356 0.258068,-1.973173 1.413652,-1.685421 1.155584,0.287756 3.676227,-3.871179 3.889247,-2.856988 0.232985,1.109245 1.11782,-4.527165 -0.504301,-0.624096 -0.781277,1.879878 -1.477953,2.014726 -1.774082,-0.51032 -0.54257,-4.626412 1.672671,-5.895334 -1.318545,-1.681466 -1.229817,1.732501 -1.57663,4.621524 -1.144997,5.258695 0.431632,0.637173 2.147575,0.833514 2.085916,-2.126243 -0.06165,-2.959757 -0.352945,-4.150599 -1.339533,-1.910227 -0.986582,2.240375 -0.772961,2.498029 -1.122375,4.14234 -0.349415,1.644308 -1.089351,1.151016 -1.089351,1.151016 z"
       id="path137093"
       sodipodi:nodetypes="csssssssssssssc" />
  </g>
</svg>
