<?xml version="1.0" encoding="UTF-8" standalone="no"?>
<!-- Created with Inkscape (http://www.inkscape.org/) -->

<svg
   width="720"
   height="1000"
   viewBox="0 0 190.49999 264.58334"
   version="1.1"
   id="svg5"
   inkscape:version="1.1.1 (3bf5ae0d25, 2021-09-20)"
   sodipodi:docname="jennifer.svg"
   xmlns:inkscape="http://www.inkscape.org/namespaces/inkscape"
   xmlns:sodipodi="http://sodipodi.sourceforge.net/DTD/sodipodi-0.dtd"
   xmlns:xlink="http://www.w3.org/1999/xlink"
   xmlns="http://www.w3.org/2000/svg"
   xmlns:svg="http://www.w3.org/2000/svg">
  <sodipodi:namedview
     id="namedview7"
     pagecolor="#ffffff"
     bordercolor="#666666"
     borderopacity="1.0"
     inkscape:pageshadow="2"
     inkscape:pageopacity="0.0"
     inkscape:pagecheckerboard="0"
     inkscape:document-units="px"
     showgrid="false"
     units="px"
     width="800px"
     inkscape:zoom="11.313709"
     inkscape:cx="165.10943"
     inkscape:cy="451.88543"
     inkscape:window-width="2560"
     inkscape:window-height="1369"
     inkscape:window-x="1912"
     inkscape:window-y="-8"
     inkscape:window-maximized="1"
     inkscape:current-layer="layer1" />
  <defs
     id="defs2" />
  <g
     inkscape:label="Layer 1"
     inkscape:groupmode="layer"
     id="layer1">
    <image
       width="480.92163"
       height="270.5184"
       preserveAspectRatio="none"
       xlink:href="BanG%20Dream!%20Girls%20Band%20Party!%E2%98%86PICO%20FEVER!%20Episode%205%20(with%20English%20subtitles)%20%5BtTqFcAZVjjo%5D.mkv_snapshot_00.59.388.png"
       id="image832"
       x="-136.74426"
       y="-8.7883692"
       style="display:inline" />
    <path
       style="fill:none;stroke:#000000;stroke-width:0.264583px;stroke-linecap:butt;stroke-linejoin:miter;stroke-opacity:1"
       d="m 20.066742,127.36741 c 0.24056,-12.68966 2.782911,-27.770134 2.15047,-46.876239 -0.3312,-10.005568 -0.429233,-14.760403 -1.62531,-19.094615 -1.594822,-5.779137 -3.18594,-11.216207 -3.90762,-15.786887 -0.72169,-4.570679 -0.584064,-10.417694 0.837516,-15.672205 1.45969,-5.395387 2.455574,-10.391289 4.101304,-13.180653 3.72392,-6.311734 7.497251,-4.451996 8.602808,-0.906701 0.508468,1.630553 1.700435,5.657028 1.775832,9.446087 0.09195,4.620644 -0.588153,12.220433 -0.342469,17.246306 0.152384,3.117263 1.807725,2.215117 5.641594,0.985367 3.566093,-1.143858 11.499883,-2.089511 14.624245,-2.589409 3.007026,-0.481125 3.597215,-0.15962 3.624224,-2.486914 0.06194,-5.336883 0.272625,-11.288015 0.357916,-15.357843 0.130207,-6.213084 -0.46968,-8.043405 1.67258,-9.478795 3.45857,-2.317357 3.83571,-1.131329 5.71335,3.127307 1.48284,3.363185 2.34473,7.287601 3.23208,10.633843 0.69553,2.622857 1.765775,5.838492 1.964922,6.665367 0.413682,1.717652 1.177898,2.517093 -0.806742,7.238126 -2.21594,5.271263 -4.63082,10.3141 -6.13433,14.163092 -1.46725,3.756154 -1.6238,6.134335 -1.6238,10.644867 0,5.05181 -0.133336,14.285182 0.701623,20.220355 0.488934,3.475515 1.339823,7.521137 -0.250533,11.804466 -1.617153,4.355498 -4.36019,6.224538 -3.18745,14.523928"
       id="path937"
       sodipodi:nodetypes="csssssssssssssssssssssc" />
    <path
       style="fill:none;stroke:#000000;stroke-width:0.264583px;stroke-linecap:butt;stroke-linejoin:miter;stroke-opacity:1"
       d="m 19.017402,123.15608 c -0.34483,4.20993 -0.0565,7.09242 -0.0328,9.00375 0.0302,2.4442 0.62079,2.63748 2.24666,1.15151 3.25175,-2.97195 4.95026,-3.89798 6.75055,-4.17077"
       id="path939"
       sodipodi:nodetypes="cssc" />
    <path
       style="fill:none;stroke:#000000;stroke-width:0.264583px;stroke-linecap:butt;stroke-linejoin:miter;stroke-opacity:1"
       d="m 30.940202,128.34955 c 3.427572,-1.83078 6.256697,-5.79925 9.099588,-6.20111 3.144255,-0.44446 10.408042,-1.9602 12.204832,-2.58343 3.49493,-1.21225 4.53442,-2.17788 6.85233,-7.6909"
       id="path941"
       sodipodi:nodetypes="cssc" />
    <path
       style="fill:none;stroke:#000000;stroke-width:0.264583px;stroke-linecap:butt;stroke-linejoin:miter;stroke-opacity:1"
       d="m 34.522942,115.26866 c 1.06617,-1.93732 7.41262,-3.09975 10.64458,-4.0757"
       id="path943"
       sodipodi:nodetypes="cc" />
    <path
       style="fill:none;stroke:#000000;stroke-width:0.264583px;stroke-linecap:butt;stroke-linejoin:miter;stroke-opacity:1"
       d="m 32.417428,111.10263 c 1.22322,-4.63346 3.285567,-6.31448 3.28528,-11.371623 -2.07e-4,-3.661152 -0.235923,-15.150603 -0.304693,-17.603548 -0.03204,-1.142894 -0.184989,-3.511449 1.427947,-6.280688"
       id="path945"
       sodipodi:nodetypes="cssc" />
    <path
       style="fill:none;stroke:#000000;stroke-width:0.264583px;stroke-linecap:butt;stroke-linejoin:miter;stroke-opacity:1"
       d="m 30.913972,111.5844 c -1.61598,-4.59279 -3.63411,-20.628369 -3.54906,-24.198919 0.0385,-1.61776 0.11021,-4.17522 0.55497,-5.24313 0.46049,-1.10567 1.27577,-2.46649 1.87113,-3.06186 0.59536,-0.59536 1.61598,-2.46649 1.78609,-3.1469 0.1701,-0.68042 0.42525,-2.55155 0.42525,-3.06186 0,-0.51031 -0.22036,-2.89131 -0.44545,-3.98238 -0.17941,-0.86966 -0.32001,-2.22638 -1.42568,-2.05628 -1.10567,0.17011 -2.60697,1.66581 -3.28738,3.19673 -0.68042,1.53093 -1.47551,4.28781 -1.64561,5.56358 -0.1701,1.27577 -0.1701,2.9768 0.1701,3.65722 0.34021,0.68041 1.53093,0.93556 2.29639,0.68041 0.76547,-0.25515 1.70104,-1.02062 2.12629,-1.44588"
       id="path949"
       sodipodi:nodetypes="csssssssssssc" />
    <path
       style="fill:none;stroke:#000000;stroke-width:0.264583px;stroke-linecap:butt;stroke-linejoin:miter;stroke-opacity:1"
       d="m 32.852872,76.784101 c 1.36082,-3.14691 1.87113,-4.16752 1.87113,-5.6134 0,-1.44588 0.0425,-1.84987 -0.44652,-3.50837 -0.48708,-1.65185 -1.62353,-3.65748 -3.50801,-5.10638"
       id="path951"
       sodipodi:nodetypes="cssc" />
    <path
       style="fill:none;stroke:#000000;stroke-width:0.264583px;stroke-linecap:butt;stroke-linejoin:miter;stroke-opacity:1"
       d="m 24.858022,76.018641 c -0.42525,-2.6366 -0.29893,-4.75522 -0.23496,-6.37887 0.0649,-1.64605 0.23496,-3.91237 0.49012,-4.93299 0.24531,-0.98124 0.41344,-1.93956 1.54307,-2.51417 0.79395,-0.403866 1.80297,-0.178675 2.79103,-0.005"
       id="path953"
       sodipodi:nodetypes="csssc" />
    <path
       style="fill:none;stroke:#000000;stroke-width:0.264583px;stroke-linecap:butt;stroke-linejoin:miter;stroke-opacity:1"
       d="m 37.632122,58.33868 c -1.66625,-1.166695 -5.56963,-2.14221 -6.76035,-2.14221 -1.19072,0 -1.65592,0.685574 -1.65592,1.62114 0,0.935567 -0.10525,4.422681 -0.1903,6.293811 -0.085,1.87114 0.44074,5.32818 0.69589,6.60395 0.25516,1.27578 0.78993,3.90766 1.91152,4.12242"
       id="path955"
       sodipodi:nodetypes="cssssc" />
    <path
       style="fill:none;stroke:#000000;stroke-width:0.264583px;stroke-linecap:butt;stroke-linejoin:miter;stroke-opacity:1"
       d="m 44.685352,70.519911 c -1.98625,2.27664 -4.66232,4.57191 -5.70877,3.2526 -0.98023,-1.23583 -0.53006,-2.91195 -0.59536,-4.8982 -0.0643,-1.95697 0.085,-7.824744 0.1701,-8.675257 0.085,-0.850517 0.0249,-2.891313 0.70533,-0.08461 0.68041,2.806707 1.61082,5.333337 2.18643,6.163657 0.58549,0.84459 1.53808,0.34978 1.14134,-1.22595 -0.41067,-1.63101 -2.19571,-10.307276 -0.37588,-7.064437 1.38554,2.468964 0.59536,11.907217 1.27577,9.610827 0.68042,-2.29639 -1.15411,-11.430526 -0.26635,-9.432177 0.81101,1.825586 2.47858,11.717357 2.73373,9.165807 0.25516,-2.55154 -0.46653,-5.836708 -1.10655,-9.004253 -0.58084,-2.874642 -1.45054,-5.012615 -0.69545,-0.956644 0.79082,4.247859 1.20193,13.465707 0.35141,9.978597 -0.85052,-3.48712 -3.50908,-9.914184 -5.59159,-11.580427"
       id="path957"
       sodipodi:nodetypes="csssssssssssssc" />
    <path
       style="fill:none;stroke:#000000;stroke-width:0.264583px;stroke-linecap:butt;stroke-linejoin:miter;stroke-opacity:1"
       d="m 91.017971,67.861661 c -4.751105,0.78183 -12.11832,0.84197 -16.899489,1.65386"
       id="path959"
       sodipodi:nodetypes="cc" />
    <path
       style="fill:none;stroke:#000000;stroke-width:0.264583px;stroke-linecap:butt;stroke-linejoin:miter;stroke-opacity:1"
       d="m 79.170285,71.319741 c -3.037096,-0.631482 -3.281873,-2.164831 -7.12665,-1.86435 -3.539217,0.276601 -6.765336,-0.746558 -9.682623,-0.03007 -1.435133,0.35247 -2.910151,0.6014 -4.90146,1.80421 -1.856073,1.121124 -5.11194,2.97696 -5.47278,6.94623 -0.36085,3.96928 0.780449,8.936407 1.14266,10.85537 0.599081,3.173883 1.73599,8.640344 3.87973,13.023559 2.29961,4.70189 3.602566,8.36633 6.01339,12.32565 3.438495,5.64707 6.961585,7.09621 9.081218,7.72806 3.554632,1.05961 6.615552,-0.7905 10.344172,-0.69162 3.547172,0.0941 8.780899,1.28998 11.095929,1.53358 1.17585,0.12373 5.60037,0.76815 7.607779,0.36085 2.07484,-0.42098 4.89966,-0.21226 8.35953,-1.47345 2.57091,-0.93715 8.84918,-3.48525 10.34417,-4.14969 2.16506,-0.96225 10.34503,-4.40796 11.69733,-5.20216 1.89442,-1.11259 4.45333,-2.6308 6.61546,-4.93152 2.34548,-2.49583 4.53275,-5.38734 5.71335,-7.51756 1.38323,-2.495835 2.78748,-5.03391 3.27766,-6.314749 0.44711,-1.16832 0.88781,-1.91034 1.15348,-2.46053 0.38909,-0.8058 0.66946,-1.421746 0.84618,-2.065036 0.28854,-1.05028 -1.38734,1.920416 -0.47347,-1.410248 1.16776,-4.256038 1.13316,-5.828616 0.9433,-7.940306 -0.1703,-1.89417 -0.71048,-4.85826 -2.57307,-7.055"
       id="path961"
       sodipodi:nodetypes="csssssssssssssssssssssc" />
    <path
       style="fill:none;stroke:#000000;stroke-width:0.264583px;stroke-linecap:butt;stroke-linejoin:miter;stroke-opacity:1"
       d="M 143.48304,71.487507 C 139.82582,68.55323 129.38776,61.21824 121.64153,58.555139 c -4.55568,-1.566211 -7.12547,-1.637867 -12.56877,-0.277041 -5.4433,1.360823 -15.359953,4.931015 -16.853909,5.408073 -2.530286,0.807984 -4.385211,1.061572 -11.743159,0.90549 -5.249425,-0.111355 -9.21564,0.74571 -10.57646,1.08592"
       id="path963"
       sodipodi:nodetypes="cssssc" />
    <path
       style="fill:none;stroke:#000000;stroke-width:0.264583px;stroke-linecap:butt;stroke-linejoin:miter;stroke-opacity:1"
       d="m 69.799842,67.834571 c -3.38382,-1.62478 -7.18497,-1.28156 -9.69186,-0.83139"
       id="path965"
       sodipodi:nodetypes="cc" />
    <path
       style="fill:none;stroke:#000000;stroke-width:0.264583px;stroke-linecap:butt;stroke-linejoin:miter;stroke-opacity:1"
       d="m 85.649244,246.56672 c 1.426125,0.9562 2.189087,0.86945 3.933007,-0.70015 1.85654,-1.67097 2.81139,-4.03883 3.53694,-6.06445 1.01118,-2.82309 1.48591,-4.12022 1.33591,-8.97422 -0.11315,-3.6615 -0.157,-7.46735 -0.91581,-10.75082 -0.74571,-3.2268 -1.40162,-7.60411 -1.70103,-10.42701 -0.42526,-4.00951 -1.58726,-8.40404 -1.75086,-10.872 -0.39121,-5.90166 -1.06485,-10.6267 -1.27061,-11.93729 -0.32548,-2.07308 -0.60052,-5.77318 -1.11083,-8.83504 -0.51031,-3.06186 -1.375378,-9.05641 -1.917954,-11.71905 -0.778486,-3.82034 -1.400135,-6.23158 -1.947511,-8.61048 -0.416744,-1.81117 -1.401388,-3.28751 -0.729057,-7.6466 m 1.293834,9.54257 c 0.839373,-4.61036 -0.794081,-10.90797 -1.026637,-12.67262 -0.190451,-1.44516 -3.184798,-5.1573 -5.174624,-7.8723 -2.387026,-3.25695 -5.80217,-9.51122 -5.71712,-13.08338 0.085,-3.57217 0.77062,-4.09795 1.11083,-5.03352"
       id="path971"
       sodipodi:nodetypes="cssssssssssccsssc" />
    <path
       style="fill:none;stroke:#000000;stroke-width:0.264583px;stroke-linecap:butt;stroke-linejoin:miter;stroke-opacity:1"
       d="m 84.723995,117.08305 c -0.29768,5.16109 1.201042,8.86083 1.711352,10.39176 0.51031,1.53092 2.756874,7.34965 3.522344,9.39089 0.76546,2.04124 2.47593,5.66323 3.36683,7.61941 0.85843,1.88487 2.29639,5.35825 2.9768,7.48454 0.68042,2.12629 1.92764,4.43845 2.10138,6.6495 0.43131,5.489 -1.72617,-2.93009 -0.76031,3.22164 0.35711,2.2745 0.274,3.67862 0.82045,6.51978 0.47935,2.49228 1.47595,5.16147 1.810989,6.68812 0.25394,1.1571 1.38574,6.43385 1.811,7.96477 0.42526,1.53093 1.78608,8.50516 2.04124,9.86598 0.25515,1.36083 1.42319,9.0911 1.70103,11.14175 0.37027,2.73286 1.53092,7.14434 1.87113,9.35568 0.34021,2.21134 1.78608,7.31443 1.95619,8.7603 0.1701,1.44588 1.72594,6.58332 2.04123,7.99484 0.22934,1.02674 0.68042,4.25259 0.85052,6.20876 0.1701,1.9562 0.59536,6.55929 0.68041,9.19589 0.085,2.6366 0.0747,5.23798 -0.43557,6.68385"
       id="path973"
       sodipodi:nodetypes="cssssssssssssssssc" />
    <path
       style="fill:none;stroke:#000000;stroke-width:0.264583px;stroke-linecap:butt;stroke-linejoin:miter;stroke-opacity:1"
       d="m 140.80907,243.93012 c -2.57901,-0.3389 -5.42297,-0.96411 -7.92495,-1.63572"
       id="path975"
       sodipodi:nodetypes="cc" />
    <path
       style="fill:none;stroke:#000000;stroke-width:0.264583px;stroke-linecap:butt;stroke-linejoin:miter;stroke-opacity:1"
       d="m 132.59707,240.08305 c -0.38273,-3.14691 -2.49003,-25.27097 -2.58136,-28.68834 -0.0965,-3.60922 -1.04779,-6.00641 -1.32536,-7.93608 -0.83775,-5.82403 -1.90317,-4.27119 -2.1532,-8.32532 -0.14907,-2.41705 -0.77208,-9.8513 -1.93492,-14.2674 -1.5218,-5.7793 -0.48905,-5.29446 -1.80735,-9.37693 -1.09146,-3.38 -1.40335,-5.14562 -1.6585,-6.16624 -0.25516,-1.02062 -1.10567,-3.14691 -1.36083,-5.01804 -0.25515,-1.87113 -0.67504,-4.63297 -1.21047,-5.62888 -0.84393,-1.56975 -2.2284,-6.15116 -2.61685,-7.12885 -0.4055,-1.02062 -2.49656,-8.54554 -2.83677,-9.90637"
       id="path977"
       sodipodi:nodetypes="csssssssssc" />
    <path
       style="fill:none;stroke:#000000;stroke-width:0.264583px;stroke-linecap:butt;stroke-linejoin:miter;stroke-opacity:1"
       d="m 121.71048,156.39233 c -3.69974,-3.12565 -8.71049,-9.91946 -10.56036,-17.85051 -1.83206,-7.85473 -2.34711,-8.29642 -3.66238,-11.57732 -0.78755,-1.96451 -1.93279,-5.16066 -3.3109,-8.52954 -1.3781,-3.36888 -2.47795,-6.8809 -7.067524,-9.88413"
       id="path979"
       sodipodi:nodetypes="csssc" />
    <path
       style="fill:none;stroke:#000000;stroke-width:0.264583px;stroke-linecap:butt;stroke-linejoin:miter;stroke-opacity:1"
       d="m 131.2721,106.45675 c 1.9514,-0.45359 2.67995,0.9343 3.43124,2.6069 0.62824,1.39867 1.92538,4.221 2.33768,5.45498 0.66624,1.994 0.19771,5.0508 -0.17011,7.25772 -0.55284,3.31701 -0.81499,13.7353 -0.9781,15.94717 -0.15157,2.05552 0.21264,7.73968 1.91367,11.2268 1.70103,3.48711 2.06747,3.75605 3.39823,4.70577"
       id="path981"
       sodipodi:nodetypes="csssssc" />
    <path
       style="fill:none;stroke:#000000;stroke-width:0.264583px;stroke-linecap:butt;stroke-linejoin:miter;stroke-opacity:1"
       d="m 139.16321,144.14615 c 0.4924,3.53287 1.55968,7.12613 2.10212,9.68637 0.42746,2.01755 1.31281,2.46659 1.55938,4.12744 0.76051,5.12252 3.56836,19.27546 5.99646,32.49413 2.57581,14.02288 5.08607,31.3812 5.74043,33.72433 0.77573,2.7777 -0.36077,2.48009 -0.0851,5.31572 0.24279,2.49749 0.68126,6.06937 1.28266,7.633 0.60141,1.56366 1.41607,2.20092 0.85807,2.91167 -0.55983,0.7131 -0.41859,1.56944 2.2091,1.44853 2.08654,-0.096 2.76646,0.0784 3.69927,-0.52729"
       id="path983"
       sodipodi:nodetypes="cssssssssc" />
    <path
       style="fill:none;stroke:#000000;stroke-width:0.264583px;stroke-linecap:butt;stroke-linejoin:miter;stroke-opacity:1"
       d="m 149.62758,83.65051 c 1.59472,1.46713 2.80778,4.870711 3.61576,7.039521 0.40399,1.08441 2.3474,6.880354 4.09096,13.062529 1.74356,6.18219 3.33809,12.74207 3.73378,15.25962 0.43003,2.73601 1.46947,6.96934 1.57343,8.20733 0.11829,1.40866 1.10572,11.14189 1.19074,12.11998 0.085,0.9781 1.27577,11.90722 1.4884,13.60825 0.21263,1.70103 1.23325,9.69588 1.65851,10.80155 0.42526,1.10567 1.36082,4.76288 1.70103,6.84665 0.34021,2.08376 1.52061,9.44072 1.35051,10.33376 -0.17011,0.89304 0.35925,3.65571 0.60567,5.10309 0.43558,2.55848 2.80671,11.73712 3.14691,12.92784 0.34021,1.19072 0.46779,6.38188 0.46779,6.97724"
       id="path985"
       sodipodi:nodetypes="csssssssssssc" />
  </g>
</svg>
